<svg width="282" height="281" viewBox="0 0 282 281" fill="none" xmlns="http://www.w3.org/2000/svg">
<g clip-path="url(#clip0_703_460)">
<path d="M236.565 129.293C240.009 124.826 242.855 119.85 245.06 114.437C247.718 107.841 250.097 100.616 247.58 91.2339C247.38 90.0745 246.926 88.885 246.249 87.7515C245.572 86.6181 244.69 85.5692 243.666 84.681C243.252 84.2729 242.759 83.9692 242.256 83.814C241.754 83.6588 241.27 83.66 240.873 83.8176C240.684 83.8795 240.524 83.9851 240.402 84.1283C240.156 84.4526 240.37 84.8743 240.643 85.4091C240.74 85.5967 240.839 85.7926 240.925 85.9998C243.56 92.2438 241.724 96.7667 239.955 101.146C239.762 101.619 239.569 102.093 239.381 102.571C237.254 107.931 234.471 112.849 231.075 117.246C225.997 123.685 220.175 129.442 213.677 134.45C205.482 141.081 196.244 146.504 186.122 150.627C185.979 150.686 185.841 150.761 185.706 150.832C185.335 151.034 184.983 151.221 184.568 151.047C184.349 150.923 184.144 150.762 183.964 150.573C183.785 150.384 183.636 150.172 183.526 149.949C181.561 146.859 179.104 143.997 176.298 141.529C173.491 139.061 170.392 137.037 167.179 135.574C162.382 133.056 157.445 131.372 152.638 130.617C147.797 129.937 143.354 130.703 139.853 132.82C138.95 133.325 138.169 133.985 137.534 134.782C136.69 136.032 136.283 137.611 136.354 139.362C136.425 141.113 136.97 142.977 137.936 144.771C139.24 147.948 141.143 151.035 143.52 153.829C145.897 156.623 148.696 159.062 151.73 160.983C157.546 164.491 163.742 166.263 169.35 166.022L170.739 165.988L172.429 165.947C172.636 166.202 172.839 166.46 173.042 166.715C172.864 166.989 172.662 167.272 172.446 167.556C170.164 170.217 167.434 172.443 164.32 174.182L163.393 174.772C155.837 179.593 147.224 183.022 137.805 184.96C128.392 186.882 118.455 187.711 108.147 187.433C94.2186 187.053 80.0001 185.69 65.5873 183.354L65.3302 183.315C64.0827 183.018 62.8925 183.052 61.8825 183.415C61.5559 183.554 61.2739 183.756 61.0471 184.014C60.972 184.09 60.9247 184.192 60.9097 184.31C60.8946 184.428 60.9123 184.559 60.9609 184.69C61.1166 185.048 61.5792 185.424 62.3541 185.816C62.493 185.88 62.6336 185.931 62.7733 185.967C63.0069 186.037 63.2273 186.101 63.3393 186.263C63.4512 186.425 63.4377 186.561 63.3689 186.787C62.6886 189.433 64.7767 190.64 66.7995 191.809L67.1912 192.036C70.4248 193.74 73.7511 194.908 77.0036 195.481C77.7004 195.644 78.4118 195.81 79.1079 195.986C90.1762 198.961 101.153 200.981 111.908 202.022C121.8 202.662 131.428 202.412 140.684 201.273C146.761 201.021 152.37 199.633 157.261 197.172C158.832 196.304 160.542 195.63 162.368 195.158C164.102 194.706 165.734 194.073 167.243 193.268C173.233 190.114 178.591 186.13 183.215 181.391C183.61 180.95 183.99 180.489 184.344 180.024C187.295 176.226 188.851 171.309 188.856 165.769C188.825 164.702 189.094 163.748 189.635 163.004C190.075 162.445 190.659 162.023 191.354 161.765C195.33 160.181 199.519 158.329 204.564 155.974C211.472 152.484 217.76 148.161 223.339 143.068C228.221 138.953 232.642 134.349 236.565 129.293ZM186.439 153.401L202.861 145.676C198.223 149.379 192.67 151.992 186.439 153.401ZM159.973 181.556C161.055 180.818 162.162 180.081 163.232 179.369C167.889 176.441 172.264 173.164 176.334 169.556C175.945 170.209 175.506 170.866 175.024 171.501C171.079 176.075 165.973 179.491 159.982 181.567L159.973 181.556ZM146.991 146.04C147.263 145.711 147.567 145.41 147.899 145.142L148.004 145.05C152.018 141.53 158.142 143.242 163.546 144.754C167.753 145.721 172.007 147.85 175.807 150.89C176.459 151.358 176.988 152.008 177.288 152.71C177.322 152.84 177.33 152.968 177.311 153.084C177.292 153.2 177.247 153.302 177.178 153.384C176.901 153.677 176.53 153.869 176.095 153.943C170.532 155.552 164.159 155.566 157.52 153.983C154.36 153.228 151.169 151.691 148.253 149.521C147.532 148.99 146.962 148.251 146.668 147.466C146.608 147.184 146.605 146.911 146.661 146.666C146.717 146.422 146.829 146.21 146.992 146.044L146.991 146.04Z" fill="#F7FBFF"/>
<path d="M72.4306 216.287C72.681 215.843 72.7644 215.286 72.6707 214.682C72.2703 209.835 71.5816 208.856 64.5469 202.952C59.5448 198.853 54.3695 195.03 49.059 191.509C47.8794 190.699 46.666 189.865 45.4753 189.036C45.2572 188.888 45.035 188.751 44.8096 188.624C43.9976 188.151 43.1606 187.666 43.0525 186.486C43.0047 186.118 43.076 185.786 43.2563 185.536C43.6237 185.183 44.1343 184.993 44.7219 184.991L45.038 184.946C48.4461 184.307 51.6361 183.246 54.5508 181.784C55.6524 181.296 56.7914 180.792 57.941 180.336C59.1654 179.849 60.5054 179.486 61.8029 179.134C63.383 178.739 64.9048 178.238 66.3606 177.635C70.1621 175.949 74.2425 174.572 78.2103 173.224L79.2221 172.882C79.9773 172.592 80.6835 172.226 81.3336 171.79C82.4945 170.873 84.0141 170.402 85.7264 170.429C86.1923 170.498 86.6347 170.471 87.0273 170.35C87.4199 170.23 87.7547 170.018 88.0118 169.727C88.7095 168.808 88.5095 167.04 87.4106 164.328C87.2499 163.771 86.9806 163.215 86.6198 162.693C86.259 162.172 85.8145 161.698 85.3141 161.299C84.8138 160.901 84.2685 160.588 83.7124 160.379C83.1563 160.171 82.6016 160.071 82.0829 160.088C79.9269 160.216 77.8647 160.573 75.9259 161.155C69.1168 163.261 62.2095 165.429 55.532 167.525L55.5203 167.54C49.774 169.333 43.8425 171.195 37.9954 173.002C35.7723 173.678 33.453 174.245 31.2001 174.786L29.2415 175.26C27.6356 175.508 26.2593 176.194 25.2337 177.257C24.1594 178.671 24.6067 180.801 26.8297 184.847C28.0254 187.083 29.6268 189.19 31.5245 191.025C33.4221 192.859 35.5712 194.377 37.8247 195.475C47.0252 200.111 56.0516 205.502 64.7845 211.577C65.7921 212.304 66.7829 213.11 67.7352 213.882C68.4322 214.45 69.1537 215.036 69.8657 215.579C71.1731 216.581 72.0305 216.814 72.4306 216.287ZM30.6192 178.28L39.0265 175.809L39.377 175.708L47.4389 173.342C42.516 176.1 36.8269 177.771 30.6192 178.28Z" fill="#F7FBFF"/>
</g>
<defs>
<clipPath id="clip0_703_460">
<rect width="220.274" height="139.633" fill="white" transform="matrix(-0.604766 0.796403 0.752616 0.658459 154.665 6.81152)"/>
</clipPath>
</defs>
</svg>
