<svg width="20" height="16" viewBox="0 0 20 16" fill="none" xmlns="http://www.w3.org/2000/svg">
<path d="M6.1811 16C13.6063 16 17.6693 9.84252 17.6693 4.51181C17.6693 4.33858 17.6693 4.16535 17.6614 3.99213C18.4488 3.4252 19.1339 2.70866 19.6772 1.89764C18.9528 2.22047 18.1732 2.43307 17.3543 2.53543C18.189 2.03937 18.8268 1.24409 19.1339 0.299212C18.3543 0.763779 17.4882 1.09449 16.5669 1.27559C15.8268 0.488189 14.7795 0 13.622 0C11.3937 0 9.58268 1.81102 9.58268 4.03937C9.58268 4.35433 9.62205 4.66142 9.68504 4.96063C6.33071 4.79527 3.35433 3.1811 1.3622 0.740158C1.01575 1.33858 0.818898 2.0315 0.818898 2.77165C0.818898 4.17323 1.53543 5.40945 2.61417 6.13386C1.95276 6.11024 1.33071 5.92913 0.787402 5.62992C0.787402 5.64567 0.787402 5.66142 0.787402 5.68504C0.787402 7.63779 2.1811 9.27559 4.02362 9.64567C3.68504 9.74016 3.33071 9.7874 2.96063 9.7874C2.70079 9.7874 2.44882 9.76378 2.20472 9.71653C2.71654 11.3228 4.2126 12.4882 5.97638 12.5197C4.59055 13.6063 2.85039 14.252 0.96063 14.252C0.637796 14.252 0.314961 14.2362 0 14.1969C1.77953 15.3307 3.90551 16 6.1811 16Z" fill="#EFF6FF"/>
</svg>
