<svg width="27" height="27" viewBox="0 0 27 27" fill="none" xmlns="http://www.w3.org/2000/svg">
<path d="M16.164 17.8779C15.9355 17.8779 15.707 18.0857 15.707 18.7815C15.707 19.4774 15.9355 19.6851 16.164 19.6851C16.3925 19.6851 16.621 19.4774 16.621 18.7815C16.621 18.0856 16.3925 17.8779 16.164 17.8779Z" fill="#FFAE10"/>
<path d="M10.8359 14.4512C10.6074 14.4512 10.3789 14.6589 10.3789 15.3548C10.3789 16.0506 10.6074 16.2584 10.8359 16.2584C11.0644 16.2584 11.2929 16.0506 11.2929 15.3548C11.2929 14.6589 11.0644 14.4512 10.8359 14.4512Z" fill="#FFAE10"/>
<path d="M21.4047 9.57869C19.1155 7.05032 17.7551 4.8246 17.0168 3.40263C16.2173 1.86243 15.9553 0.907358 15.9533 0.899757L15.7153 0L14.8653 0.379126C14.766 0.423409 12.4176 1.49439 11.1017 4.1261C10.4411 5.44726 10.309 6.91821 10.3145 7.91947C10.3178 8.50217 9.90491 9.00813 9.33293 9.12251C8.9319 9.20263 8.51936 9.07796 8.22991 8.78851L6.64664 7.20524L6.10199 7.95626C6.04546 8.03421 4.71443 9.86988 4.47212 10.2367C3.28882 12.0279 2.67181 14.1145 2.6878 16.2708C2.70923 19.1508 3.84181 21.8491 5.87688 23.8686C7.91185 25.8879 10.6187 27 13.4989 27C19.4602 26.9999 24.3101 22.1501 24.3101 16.1887C24.3102 14.0273 23.2512 11.618 21.4047 9.57869ZM16.1629 20.8071C15.062 20.8071 14.2311 20.08 14.2311 18.7818C14.2311 17.4939 15.0619 16.7565 16.1629 16.7565C17.2638 16.7565 18.0947 17.4939 18.0947 18.7818C18.0947 20.08 17.2638 20.8071 16.1629 20.8071ZM15.1035 13.4329H16.8588L11.8942 20.7032H10.1389L15.1035 13.4329ZM8.90303 15.3544C8.90303 14.0665 9.7339 13.3291 10.8349 13.3291C11.9358 13.3291 12.7667 14.0665 12.7667 15.3544C12.7667 16.6526 11.9358 17.3797 10.8349 17.3797C9.7339 17.3797 8.90303 16.6526 8.90303 15.3544Z" fill="#FFAE10"/>
</svg>
